<?xml version="1.0" standalone="no"?>
<!DOCTYPE svg PUBLIC "-//W3C//DTD SVG 20010904//EN"
 "http://www.w3.org/TR/2001/REC-SVG-20010904/DTD/svg10.dtd">
<svg version="1.0" xmlns="http://www.w3.org/2000/svg"
 width="300.000000pt" height="156.000000pt" viewBox="0 0 300.000000 156.000000"
 preserveAspectRatio="xMidYMid meet">

<g transform="translate(0.000000,156.000000) scale(0.100000,-0.100000)"
fill="#000000" stroke="none">
<path d="M2429 1542 c-181 -48 -331 -212 -359 -397 -35 -221 74 -425 280 -524
74 -36 76 -36 205 -36 121 0 134 2 189 27 86 41 153 94 202 161 24 33 44 63
44 68 0 5 -21 9 -47 9 -43 0 -50 -4 -68 -31 -28 -44 -125 -114 -188 -136 -36
-12 -80 -18 -142 -18 -77 0 -99 4 -149 28 -168 78 -255 221 -243 403 6 107 45
190 122 263 76 72 149 104 251 109 135 7 241 -35 333 -133 36 -39 48 -45 82
-45 48 0 50 12 11 66 -118 162 -328 237 -523 186z"/>
<path d="M0 1070 l0 -480 45 0 44 0 3 128 3 127 155 5 c129 5 165 10 211 28
73 29 143 91 177 156 25 46 27 61 27 161 0 94 -3 117 -23 156 -31 65 -87 117
-159 151 -78 37 -151 48 -335 48 l-148 0 0 -480z m355 379 c78 -14 125 -39
168 -90 43 -50 62 -120 53 -196 -11 -95 -49 -149 -136 -194 -40 -21 -61 -24
-197 -27 l-153 -4 0 254 c0 140 3 258 7 261 10 11 194 8 258 -4z"/>
<path d="M750 1070 l0 -480 45 0 45 0 0 129 0 129 158 4 158 3 77 38 c130 64
182 150 182 302 0 148 -58 247 -178 304 -82 39 -160 51 -339 51 l-148 0 0
-480z m414 365 c66 -24 128 -87 145 -147 8 -27 12 -77 9 -116 -5 -97 -42 -155
-123 -197 -56 -29 -65 -30 -207 -33 l-148 -3 0 254 c0 139 3 257 8 261 14 15
264 -1 316 -19z"/>
<path d="M1530 1335 l0 -215 215 0 215 0 0 215 0 215 -215 0 -215 0 0 -215z"/>
<path d="M1675 1026 c-33 -33 -41 -71 -26 -125 12 -44 11 -47 -11 -61 -86 -56
-118 -114 -98 -174 6 -19 22 -41 35 -50 37 -25 114 -20 169 9 l47 25 37 -25
c49 -34 101 -33 141 1 38 31 41 53 5 29 -34 -22 -79 -14 -115 21 l-27 26 38
62 c59 93 70 106 85 106 8 0 15 5 15 10 0 6 -28 10 -65 10 -63 0 -86 -12 -45
-23 11 -3 20 -13 20 -24 0 -27 -46 -108 -61 -108 -8 0 -32 27 -53 59 l-40 59
25 16 c81 52 101 110 54 156 -33 34 -96 35 -130 1z m121 -31 c8 -31 -11 -70
-45 -95 l-31 -22 -15 36 c-25 59 -15 106 25 118 23 8 60 -13 66 -37z m-83
-228 c20 -34 43 -70 49 -79 10 -14 9 -20 -7 -32 -29 -22 -83 -30 -111 -17 -32
14 -59 71 -50 106 7 27 57 85 73 85 4 0 25 -28 46 -63z"/>
<path d="M2311 171 c-10 -7 -6 -11 16 -15 21 -5 36 -18 49 -41 17 -32 17 -36
2 -51 -20 -21 -51 -11 -68 21 -15 27 -30 33 -30 11 0 -21 47 -66 70 -66 24 0
60 33 60 56 0 20 -38 84 -50 84 -5 0 -14 2 -22 5 -7 3 -19 1 -27 -4z"/>
<path d="M2830 155 c0 -9 5 -15 11 -13 6 2 11 8 11 13 0 5 -5 11 -11 13 -6 2
-11 -4 -11 -13z"/>
<path d="M1282 83 c1 -44 3 -54 5 -28 6 65 12 74 29 43 8 -16 18 -28 22 -28
10 0 34 41 28 47 -3 3 -8 -2 -12 -11 -9 -23 -17 -20 -37 14 -10 17 -22 30 -28
30 -5 0 -8 -30 -7 -67z"/>
<path d="M1375 140 c-3 -5 -3 -16 2 -22 4 -7 10 -33 14 -58 6 -42 6 -40 8 23
1 61 -8 83 -24 57z"/>
<path d="M1700 91 c0 -51 3 -61 20 -66 26 -8 70 19 70 43 0 25 -20 42 -47 42
-16 0 -23 6 -23 20 0 11 -4 20 -10 20 -6 0 -10 -26 -10 -59z m70 -20 c0 -26
-14 -41 -41 -41 -5 0 -9 16 -9 35 0 31 3 35 25 35 21 0 25 -5 25 -29z"/>
<path d="M2143 125 c-6 -14 -7 -25 -2 -25 5 0 10 -17 11 -37 l1 -38 4 35 c3
19 10 38 16 42 9 6 9 8 0 8 -22 0 -14 28 10 33 21 4 20 4 -3 6 -18 0 -28 -7
-37 -24z"/>
<path d="M2262 143 c-24 -9 -33 -52 -18 -81 24 -46 52 -65 83 -57 l28 7 -34
12 c-59 21 -85 87 -39 102 17 5 27 -1 47 -25 14 -17 29 -31 34 -31 14 0 6 19
-22 49 -27 29 -49 36 -79 24z"/>
<path d="M2460 85 c0 -37 4 -65 10 -65 6 0 10 19 10 43 l0 42 41 -42 c22 -24
42 -43 45 -43 2 0 4 29 4 65 0 37 -4 65 -10 65 -5 0 -10 -16 -10 -35 0 -19 -2
-35 -5 -35 -3 0 -19 16 -36 35 -17 19 -35 35 -40 35 -5 0 -9 -29 -9 -65z"/>
<path d="M2630 122 c-21 -7 -30 -23 -30 -54 0 -33 31 -53 67 -43 29 7 23 19
-10 20 -35 0 -35 20 1 23 31 3 39 16 24 38 -10 15 -34 22 -52 16z m40 -33 c0
-5 -11 -9 -25 -9 -26 0 -34 15 -12 23 16 5 37 -3 37 -14z"/>
<path d="M2908 122 c-10 -2 -18 -8 -18 -13 0 -6 9 -8 19 -4 32 10 33 -12 1
-24 -19 -6 -30 -17 -30 -29 0 -23 13 -29 55 -27 23 1 31 7 33 24 8 55 -15 83
-60 73z m32 -67 c0 -8 -6 -15 -14 -15 -17 0 -28 14 -19 24 12 12 33 6 33 -9z"/>
<path d="M2723 96 c14 -21 14 -26 0 -45 -19 -28 -9 -40 15 -18 17 15 19 15 35
0 23 -23 32 -10 13 19 -14 22 -14 26 0 46 13 19 13 22 0 22 -8 0 -18 -5 -22
-11 -4 -8 -9 -8 -17 0 -6 6 -17 11 -25 11 -12 0 -12 -4 1 -24z"/>
<path d="M2830 70 c0 -27 5 -50 10 -50 6 0 10 23 10 50 0 28 -4 50 -10 50 -5
0 -10 -22 -10 -50z"/>
<path d="M1437 103 c-4 -3 -7 -19 -7 -35 0 -35 37 -57 66 -39 17 10 16 11 -7
5 -29 -6 -53 15 -47 43 2 12 12 18 28 18 15 0 24 -5 23 -12 -2 -7 2 -13 8 -13
6 0 8 7 5 16 -3 9 -6 18 -6 20 0 7 -56 5 -63 -3z"/>
<path d="M1541 65 l2 -40 6 35 c4 26 12 36 29 38 19 3 22 -1 23 -35 l2 -38 6
35 c4 26 12 36 29 38 19 3 22 -1 22 -32 0 -20 5 -36 10 -36 11 0 13 24 4 57
-5 20 -12 22 -70 20 l-64 -1 1 -41z"/>
<path d="M1822 98 c-35 -35 12 -95 54 -69 17 11 17 11 -4 6 -29 -8 -49 8 -47
37 2 29 34 36 53 12 13 -18 14 -18 10 1 -4 24 -47 32 -66 13z"/>
<path d="M1921 60 l2 -45 6 39 c4 26 13 42 26 47 17 6 15 7 -7 6 -26 -1 -28
-4 -27 -47z"/>
<path d="M2028 85 c-10 -22 -9 -29 10 -47 18 -19 25 -20 47 -10 22 10 26 18
23 45 -3 28 -7 32 -35 35 -27 3 -35 -1 -45 -23z m70 -11 c4 -25 -20 -47 -42
-38 -16 6 -22 45 -9 58 14 14 48 1 51 -20z"/>
</g>
</svg>
